# xmcd
#
# Track frame offsets:
#	150
#	7853
#	15171
#	24250
#	34628
#	45621
#	64755
#	79553
#	89548
#	100514
#	102608
#	115920
#	121489
#	131707
#	142466
#	154063
#	164878
#
# Disc length: 2269 seconds
#
# Revision: 1
# Processed by: cddbd v1.5.2PL0 Copyright (c) Steve Scherf et al.
# Submitted via: EasyCDDAExtractor 5.0.6
#
DISCID=d908db11
DTITLE=Smudge - Manilow
DYEAR=2006
DGENRE=Indie Rock
TTITLE0=Ugly, Just Like Me (Acoustic Demo)
TTITLE1=Hope You Like Lou (Acoustic Demo)
TTITLE2=What Do You Mean I Don't Understand (Acoustic Demo)
TTITLE3=Alison Tells Me She's Not Sure That What She's Got Is Contageous (Acou
TTITLE3=stic Demo)
TTITLE4=Outside (Acoustic Demo)
TTITLE5=Superhero (Acoustic Demo)
TTITLE6=Ingrown (Live At The Wireless 1994)
TTITLE7=Outside (Live At The Wireless 1994)
TTITLE8=Little Help (Live At The Wireless 1994)
TTITLE9=Funny You Should Mention That (Live At The Wireless 1994)
TTITLE10=Outdoor Type (Live At The Wireless 1994)
TTITLE11=Scary Cassettes (Live At The Wireless 1994)
TTITLE12=Impractical Joke (Live At The Wireless 1994)
TTITLE13=Pulp (Live At The Wireless 1994)
TTITLE14=My Bright Ideas (Live At The Wireless 1994)
TTITLE15=Down About It (Live At The Wireless 1994)
TTITLE16=Tea, Toast and Turmoil (Live At The Wireless 1994)
EXTD=
EXTT0=
EXTT1=
EXTT2=
EXTT3=
EXTT4=
EXTT5=
EXTT6=
EXTT7=
EXTT8=
EXTT9=
EXTT10=
EXTT11=
EXTT12=
EXTT13=
EXTT14=
EXTT15=
EXTT16=
PLAYORDER=
